<svg xmlns="http://www.w3.org/2000/svg" width="40" height="40" viewBox="0 0 40 40">
  <g id="Group_3" data-name="Group 3" transform="translate(-40 -105)">
    <rect id="Rectangle_13" data-name="Rectangle 13" width="40" height="40" rx="10" transform="translate(40 105)" fill="#f8f9fa"/>
    <path id="info-circle" d="M12,2A10,10,0,1,0,22,12,10.016,10.016,0,0,0,12,2Zm-.75,6a.75.75,0,0,1,1.5,0v5a.75.75,0,0,1-1.5,0Zm1.67,8.38a1.032,1.032,0,0,1-.21.33,1.155,1.155,0,0,1-.33.21.943.943,0,0,1-.76,0,1.155,1.155,0,0,1-.33-.21,1.032,1.032,0,0,1-.21-.33.942.942,0,0,1,0-.76.9.9,0,0,1,.54-.54,1,1,0,0,1,.76,0,.9.9,0,0,1,.54.54.942.942,0,0,1,0,.76Z" transform="translate(48 113)" fill="#3a86ff"/>
  </g>
</svg>
