<svg width="14" height="14" viewBox="0 0 14 14" fill="none" xmlns="http://www.w3.org/2000/svg">
    <defs>
        <linearGradient id="paint0_linear_1_1058" x1="-0.29095" y1="-0.777788" x2="11.6188" y2="11.126" gradientUnits="userSpaceOnUse">
            <stop stop-color="#00AB4F" stop-opacity="0"/>
            <stop offset="1" stop-color="#00AB4F"/>
        </linearGradient>
    </defs>
<path d="M9.44416 1.16666H4.55582C2.43249 1.16666 1.16666 2.43249 1.16666 4.55582V9.43832C1.16666 11.5675 2.43249 12.8333 4.55582 12.8333H9.43832C11.5617 12.8333 12.8275 11.5675 12.8275 9.44416V4.55582C12.8333 2.43249 11.5675 1.16666 9.44416 1.16666ZM9.33332 7.43749H7.43749V9.33332C7.43749 9.57249 7.23916 9.77082 6.99999 9.77082C6.76082 9.77082 6.56249 9.57249 6.56249 9.33332V7.43749H4.66666C4.42749 7.43749 4.22916 7.23916 4.22916 6.99999C4.22916 6.76082 4.42749 6.56249 4.66666 6.56249H6.56249V4.66666C6.56249 4.42749 6.76082 4.22916 6.99999 4.22916C7.23916 4.22916 7.43749 4.42749 7.43749 4.66666V6.56249H9.33332C9.57249 6.56249 9.77082 6.76082 9.77082 6.99999C9.77082 7.23916 9.57249 7.43749 9.33332 7.43749Z" fill="url(#paint0_linear_1_1058)"/>
</svg>
