<svg width="29" height="36" viewBox="0 0 29 36" fill="none" xmlns="http://www.w3.org/2000/svg">
<path d="M25.7606 23.6175L25.4789 21.0029L23.6049 22.8185L21.0664 22.2807L22.1902 24.6528L20.901 26.9378L23.4701 26.5865L25.2125 28.5358L25.6779 25.9461L28.0419 24.8673L25.7606 23.6175Z" fill="#ED1C24"/>
<path d="M15.7321 23.2522V20.3516H13.016V23.2522H15.7321Z" fill="#ED1C24"/>
<path d="M12.9792 27.43H15.7352V24.5449H12.9792V27.43Z" fill="#ED1C24"/>
<path d="M15.7321 23.2522H13.016V20.3516H15.7321V23.2522Z" fill="#ED1C24"/>
<path d="M12.9792 27.43V24.5449H15.7352V27.43H12.9792Z" fill="#ED1C24"/>
<path d="M11.7176 23.2522V20.3516H9.00153V23.2522H11.7176Z" fill="#ED1C24"/>
<path d="M8.96478 27.43H11.7207V24.5449H8.96478V27.43Z" fill="#ED1C24"/>
<path d="M11.7176 23.2522H9.00153V20.3516H11.7176V23.2522Z" fill="#ED1C24"/>
<path d="M8.96478 27.43V24.5449H11.7207V27.43H8.96478Z" fill="#ED1C24"/>
<path d="M13.016 11.0282C14.798 10.7746 16.6088 11.2096 18.09 12.2469L21.9268 8.86441C22.7965 7.93174 23.2803 7.26644 23.5743 6.18765C23.8805 5.0156 23.3967 3.63836 22.1075 2.2207L13.016 11.0282Z" fill="#ED1C24"/>
<path d="M23.562 20.3557C22.7535 17.94 21.2169 15.8437 19.1697 14.364C17.1224 12.8842 14.6685 12.096 12.1556 12.1109C11.5215 12.115 10.8883 12.1607 10.2601 12.2477L14.7553 6.85067C15.4666 6.16062 15.9027 5.22873 15.9802 4.23298C16.1272 1.45674 13.8673 0.00488281 13.8673 0.00488281L4.60124 14.7628L8.14721 6.77606C9.63847 2.93657 5.82304 2.40184 5.82304 2.40184L3.34883 11.514C1.57585 17.1567 0.12439 22.1651 0.12439 24.0553C0.12439 30.6524 5.5107 35.9997 12.1556 35.9997C14.3767 36.0096 16.5572 35.3954 18.4558 34.225C20.3544 33.0546 21.897 31.3738 22.9129 29.3684C22.9421 29.3063 22.9573 29.2383 22.9572 29.1694C22.9571 29.1006 22.9418 29.0326 22.9125 28.9705C22.8831 28.9085 22.8403 28.8539 22.7874 28.8109C22.7345 28.7678 22.6727 28.7373 22.6067 28.7218C21.4594 28.5124 20.2917 28.4415 19.1281 28.5104C18.0147 28.6064 16.9554 29.0396 16.0873 29.7539C15.0132 30.5421 13.7197 30.9624 12.3944 30.9539C11.5417 30.9748 10.6923 30.84 9.8865 30.556L8.04922 31.585L7.88999 29.471C6.9186 28.7179 6.18439 27.6937 5.77711 26.5238C4.11743 21.677 7.61439 17.1629 12.1525 17.1629C13.1249 17.1624 14.0857 17.3769 14.9683 17.7913C15.8508 18.2058 16.6339 18.8103 17.2632 19.5629C17.7991 20.1847 18.8555 20.8314 19.6792 20.8656C20.918 20.9082 22.1579 20.8385 23.3844 20.6573C23.4172 20.6524 23.4485 20.6401 23.476 20.6214C23.5035 20.6028 23.5266 20.5781 23.5436 20.5492C23.5606 20.5204 23.5711 20.488 23.5743 20.4546C23.5775 20.4211 23.5733 20.3873 23.562 20.3557Z" fill="#ED1C24"/>
</svg>
